<mxfile host="app.diagrams.net" agent="Mozilla/5.0 (Macintosh; Intel Mac OS X 10_15_7) AppleWebKit/605.1.15 (KHTML, like Gecko) Version/18.0.1 Safari/605.1.15" version="24.8.1">
  <diagram name="PÃ¡gina-1" id="wcN-IBux6su2oxaf2082">
    <mxGraphModel dx="658" dy="446" grid="1" gridSize="10" guides="1" tooltips="1" connect="1" arrows="1" fold="1" page="1" pageScale="1" pageWidth="850" pageHeight="1100" math="0" shadow="0">
      <root>
        <mxCell id="0" />
        <mxCell id="1" parent="0" />
        <mxCell id="77nWy2wYxLmt1-YV3-pw-13" value="" style="shape=process;whiteSpace=wrap;html=1;backgroundOutline=1;fillColor=#ffff88;strokeColor=#36393d;" vertex="1" parent="1">
          <mxGeometry x="530" y="210" width="180" height="200" as="geometry" />
        </mxCell>
        <mxCell id="77nWy2wYxLmt1-YV3-pw-14" style="edgeStyle=orthogonalEdgeStyle;rounded=0;orthogonalLoop=1;jettySize=auto;html=1;" edge="1" parent="1" source="77nWy2wYxLmt1-YV3-pw-1" target="77nWy2wYxLmt1-YV3-pw-4">
          <mxGeometry relative="1" as="geometry" />
        </mxCell>
        <mxCell id="77nWy2wYxLmt1-YV3-pw-36" style="edgeStyle=orthogonalEdgeStyle;rounded=0;orthogonalLoop=1;jettySize=auto;html=1;entryX=1;entryY=0.5;entryDx=0;entryDy=0;" edge="1" parent="1" source="77nWy2wYxLmt1-YV3-pw-1" target="77nWy2wYxLmt1-YV3-pw-8">
          <mxGeometry relative="1" as="geometry" />
        </mxCell>
        <mxCell id="77nWy2wYxLmt1-YV3-pw-1" value="" style="rounded=1;whiteSpace=wrap;html=1;" vertex="1" parent="1">
          <mxGeometry x="560" y="226.56" width="120" height="83.44" as="geometry" />
        </mxCell>
        <mxCell id="77nWy2wYxLmt1-YV3-pw-15" style="edgeStyle=orthogonalEdgeStyle;rounded=0;orthogonalLoop=1;jettySize=auto;html=1;" edge="1" parent="1" source="77nWy2wYxLmt1-YV3-pw-4" target="77nWy2wYxLmt1-YV3-pw-1">
          <mxGeometry relative="1" as="geometry" />
        </mxCell>
        <mxCell id="77nWy2wYxLmt1-YV3-pw-4" value="" style="shape=cylinder3;whiteSpace=wrap;html=1;boundedLbl=1;backgroundOutline=1;size=15;" vertex="1" parent="1">
          <mxGeometry x="590" y="340" width="60" height="60" as="geometry" />
        </mxCell>
        <mxCell id="77nWy2wYxLmt1-YV3-pw-5" value="" style="shape=image;verticalLabelPosition=bottom;labelBackgroundColor=default;verticalAlign=top;aspect=fixed;imageAspect=0;image=https://w7.pngwing.com/pngs/441/460/png-transparent-postgresql-plain-wordmark-logo-icon-thumbnail.png;" vertex="1" parent="1">
          <mxGeometry x="597.5" y="350" width="45" height="45" as="geometry" />
        </mxCell>
        <mxCell id="77nWy2wYxLmt1-YV3-pw-35" style="edgeStyle=orthogonalEdgeStyle;rounded=0;orthogonalLoop=1;jettySize=auto;html=1;entryX=0.5;entryY=0;entryDx=0;entryDy=0;" edge="1" parent="1" source="77nWy2wYxLmt1-YV3-pw-8" target="77nWy2wYxLmt1-YV3-pw-1">
          <mxGeometry relative="1" as="geometry">
            <Array as="points">
              <mxPoint x="620" y="60" />
            </Array>
          </mxGeometry>
        </mxCell>
        <mxCell id="77nWy2wYxLmt1-YV3-pw-8" value="" style="shape=process;whiteSpace=wrap;html=1;backgroundOutline=1;" vertex="1" parent="1">
          <mxGeometry x="400" width="180" height="120" as="geometry" />
        </mxCell>
        <mxCell id="77nWy2wYxLmt1-YV3-pw-9" value="&lt;font style=&quot;font-size: 18px;&quot;&gt;DASHBOARD&lt;/font&gt;" style="text;html=1;align=center;verticalAlign=middle;whiteSpace=wrap;rounded=0;" vertex="1" parent="1">
          <mxGeometry x="440" width="100" height="30" as="geometry" />
        </mxCell>
        <mxCell id="77nWy2wYxLmt1-YV3-pw-10" value="" style="shape=image;verticalLabelPosition=bottom;labelBackgroundColor=default;verticalAlign=top;aspect=fixed;imageAspect=0;image=https://cdn.icon-icons.com/icons2/2699/PNG/512/reactjs_logo_icon_170805.png;" vertex="1" parent="1">
          <mxGeometry x="425" y="25" width="90" height="45" as="geometry" />
        </mxCell>
        <mxCell id="77nWy2wYxLmt1-YV3-pw-11" value="" style="shape=image;verticalLabelPosition=bottom;labelBackgroundColor=default;verticalAlign=top;aspect=fixed;imageAspect=0;image=https://raw.githubusercontent.com/reduxjs/redux/master/logo/logo-title-dark.png;" vertex="1" parent="1">
          <mxGeometry x="415" y="70" width="121.21" height="50" as="geometry" />
        </mxCell>
        <mxCell id="77nWy2wYxLmt1-YV3-pw-22" value="" style="shape=process;whiteSpace=wrap;html=1;backgroundOutline=1;fillColor=#f5f5f5;strokeColor=#666666;fontColor=#333333;" vertex="1" parent="1">
          <mxGeometry x="270" y="210" width="180" height="200" as="geometry" />
        </mxCell>
        <mxCell id="77nWy2wYxLmt1-YV3-pw-23" style="edgeStyle=orthogonalEdgeStyle;rounded=0;orthogonalLoop=1;jettySize=auto;html=1;fillColor=#f5f5f5;strokeColor=#666666;" edge="1" parent="1" source="77nWy2wYxLmt1-YV3-pw-24" target="77nWy2wYxLmt1-YV3-pw-26">
          <mxGeometry relative="1" as="geometry" />
        </mxCell>
        <mxCell id="77nWy2wYxLmt1-YV3-pw-33" style="edgeStyle=orthogonalEdgeStyle;rounded=0;orthogonalLoop=1;jettySize=auto;html=1;entryX=0;entryY=0.5;entryDx=0;entryDy=0;" edge="1" parent="1" source="77nWy2wYxLmt1-YV3-pw-24" target="77nWy2wYxLmt1-YV3-pw-8">
          <mxGeometry relative="1" as="geometry" />
        </mxCell>
        <mxCell id="77nWy2wYxLmt1-YV3-pw-24" value="" style="rounded=1;whiteSpace=wrap;html=1;fillColor=#f5f5f5;fontColor=#333333;strokeColor=#666666;" vertex="1" parent="1">
          <mxGeometry x="300" y="226.56" width="120" height="83.44" as="geometry" />
        </mxCell>
        <mxCell id="77nWy2wYxLmt1-YV3-pw-25" style="edgeStyle=orthogonalEdgeStyle;rounded=0;orthogonalLoop=1;jettySize=auto;html=1;fillColor=#f5f5f5;strokeColor=#666666;" edge="1" parent="1" source="77nWy2wYxLmt1-YV3-pw-26" target="77nWy2wYxLmt1-YV3-pw-24">
          <mxGeometry relative="1" as="geometry" />
        </mxCell>
        <mxCell id="77nWy2wYxLmt1-YV3-pw-26" value="" style="shape=cylinder3;whiteSpace=wrap;html=1;boundedLbl=1;backgroundOutline=1;size=15;fillColor=#f5f5f5;fontColor=#333333;strokeColor=#666666;" vertex="1" parent="1">
          <mxGeometry x="330" y="340" width="60" height="60" as="geometry" />
        </mxCell>
        <mxCell id="77nWy2wYxLmt1-YV3-pw-27" value="" style="shape=image;verticalLabelPosition=bottom;labelBackgroundColor=default;verticalAlign=top;aspect=fixed;imageAspect=0;image=https://w7.pngwing.com/pngs/441/460/png-transparent-postgresql-plain-wordmark-logo-icon-thumbnail.png;fillColor=#f5f5f5;fontColor=#333333;strokeColor=#666666;" vertex="1" parent="1">
          <mxGeometry x="337.5" y="350" width="45" height="45" as="geometry" />
        </mxCell>
        <mxCell id="77nWy2wYxLmt1-YV3-pw-32" style="edgeStyle=orthogonalEdgeStyle;rounded=0;orthogonalLoop=1;jettySize=auto;html=1;" edge="1" parent="1" source="77nWy2wYxLmt1-YV3-pw-8" target="77nWy2wYxLmt1-YV3-pw-24">
          <mxGeometry relative="1" as="geometry">
            <Array as="points">
              <mxPoint x="360" y="60" />
            </Array>
          </mxGeometry>
        </mxCell>
        <mxCell id="77nWy2wYxLmt1-YV3-pw-28" style="edgeStyle=orthogonalEdgeStyle;rounded=0;orthogonalLoop=1;jettySize=auto;html=1;" edge="1" parent="1" source="77nWy2wYxLmt1-YV3-pw-24" target="77nWy2wYxLmt1-YV3-pw-1">
          <mxGeometry relative="1" as="geometry">
            <Array as="points">
              <mxPoint x="430" y="257" />
              <mxPoint x="430" y="257" />
            </Array>
          </mxGeometry>
        </mxCell>
        <mxCell id="77nWy2wYxLmt1-YV3-pw-37" value="" style="shape=image;verticalLabelPosition=bottom;labelBackgroundColor=default;verticalAlign=top;aspect=fixed;imageAspect=0;image=https://keyholesoftware.com/wp-content/uploads/Spring-Boot.png;" vertex="1" parent="1">
          <mxGeometry x="360" y="240.85" width="55" height="31.42" as="geometry" />
        </mxCell>
        <mxCell id="77nWy2wYxLmt1-YV3-pw-38" value="" style="shape=image;verticalLabelPosition=bottom;labelBackgroundColor=default;verticalAlign=top;aspect=fixed;imageAspect=0;image=https://keyholesoftware.com/wp-content/uploads/Spring-Boot.png;" vertex="1" parent="1">
          <mxGeometry x="570" y="240.85" width="55" height="31.42" as="geometry" />
        </mxCell>
        <mxCell id="77nWy2wYxLmt1-YV3-pw-39" value="" style="shape=image;verticalLabelPosition=bottom;labelBackgroundColor=default;verticalAlign=top;aspect=fixed;imageAspect=0;image=https://codersfree.nyc3.cdn.digitaloceanspaces.com/posts/operadores-relacionales-en-java.jpg;" vertex="1" parent="1">
          <mxGeometry x="310" y="240.85" width="50" height="27.84" as="geometry" />
        </mxCell>
        <mxCell id="77nWy2wYxLmt1-YV3-pw-41" value="" style="shape=image;verticalLabelPosition=bottom;labelBackgroundColor=default;verticalAlign=top;aspect=fixed;imageAspect=0;image=https://blog.sosafeapp.com/content/images/2020/04/blog---mi-primera-app-en-Kotlin.png;" vertex="1" parent="1">
          <mxGeometry x="629.85" y="240.56" width="45.3" height="31.71" as="geometry" />
        </mxCell>
        <mxCell id="77nWy2wYxLmt1-YV3-pw-43" value="" style="shape=image;verticalLabelPosition=bottom;labelBackgroundColor=default;verticalAlign=top;aspect=fixed;imageAspect=0;image=https://d1.awsstatic.com/acs/characters/Logos/Docker-Logo_Horizontel_279x131.b8a5c41e56b77706656d61080f6a0217a3ba356d.png;" vertex="1" parent="1">
          <mxGeometry x="330" y="272.27" width="60" height="28.17" as="geometry" />
        </mxCell>
        <mxCell id="77nWy2wYxLmt1-YV3-pw-44" value="" style="shape=image;verticalLabelPosition=bottom;labelBackgroundColor=default;verticalAlign=top;aspect=fixed;imageAspect=0;image=https://d1.awsstatic.com/acs/characters/Logos/Docker-Logo_Horizontel_279x131.b8a5c41e56b77706656d61080f6a0217a3ba356d.png;" vertex="1" parent="1">
          <mxGeometry x="590" y="272.27" width="60" height="28.17" as="geometry" />
        </mxCell>
        <mxCell id="77nWy2wYxLmt1-YV3-pw-45" value="" style="shape=image;verticalLabelPosition=bottom;labelBackgroundColor=default;verticalAlign=top;aspect=fixed;imageAspect=0;image=https://d1.awsstatic.com/acs/characters/Logos/Docker-Logo_Horizontel_279x131.b8a5c41e56b77706656d61080f6a0217a3ba356d.png;" vertex="1" parent="1">
          <mxGeometry x="500" y="45.92" width="72.59" height="34.08" as="geometry" />
        </mxCell>
        <mxCell id="77nWy2wYxLmt1-YV3-pw-46" value="RULE ADMIN" style="text;html=1;align=center;verticalAlign=middle;whiteSpace=wrap;rounded=0;" vertex="1" parent="1">
          <mxGeometry x="270" y="180" width="60" height="30" as="geometry" />
        </mxCell>
        <mxCell id="77nWy2wYxLmt1-YV3-pw-47" value="RULE EVALUATOR" style="text;html=1;align=center;verticalAlign=middle;whiteSpace=wrap;rounded=0;" vertex="1" parent="1">
          <mxGeometry x="536.21" y="180" width="60" height="30" as="geometry" />
        </mxCell>
        <mxCell id="77nWy2wYxLmt1-YV3-pw-29" style="edgeStyle=orthogonalEdgeStyle;rounded=0;orthogonalLoop=1;jettySize=auto;html=1;" edge="1" parent="1">
          <mxGeometry relative="1" as="geometry">
            <mxPoint x="560" y="256.32" as="sourcePoint" />
            <mxPoint x="420" y="256.32" as="targetPoint" />
            <Array as="points">
              <mxPoint x="490" y="256.32" />
              <mxPoint x="490" y="256.32" />
            </Array>
          </mxGeometry>
        </mxCell>
      </root>
    </mxGraphModel>
  </diagram>
</mxfile>
